<?xml version="1.0" standalone="no"?>
<!DOCTYPE svg PUBLIC "-//W3C//DTD SVG 20010904//EN"
 "http://www.w3.org/TR/2001/REC-SVG-20010904/DTD/svg10.dtd">
<svg version="1.0" xmlns="http://www.w3.org/2000/svg"
 width="110.000000pt" height="110.000000pt" viewBox="0 0 110.000000 110.000000"
 preserveAspectRatio="xMidYMid meet">
<metadata>
Created by potrace 1.14, written by Peter Selinger 2001-2017
</metadata>
<g transform="translate(0.000000,110.000000) scale(0.100000,-0.100000)"
fill="#000000" stroke="none">
<path d="M241 935 c-19 -24 -24 -38 -12 -30 10 6 11 3 2 -12 -9 -18 -69 -177
-70 -188 -1 -3 -1 -6 -2 -7 -8 -27 -11 -56 -14 -118 -5 -125 36 -239 114 -319
42 -43 126 -107 144 -110 17 -3 29 -6 57 -18 14 -5 63 -9 110 -8 74 1 92 5
140 31 73 39 160 121 193 182 63 116 73 293 22 427 -14 39 -30 90 -36 115 -12
55 -25 70 -56 70 -32 0 -99 -35 -107 -55 -3 -9 8 -62 26 -118 50 -163 42 -294
-24 -364 -91 -98 -245 -103 -336 -11 -55 55 -67 94 -67 208 1 80 6 109 32 182
26 76 29 90 17 107 -12 17 -58 37 -76 33 -5 -1 -8 2 -8 7 0 13 -39 10 -49 -4z
m559 -594 c0 -14 -18 -23 -30 -16 -6 4 -8 11 -5 16 8 12 35 12 35 0z"/>
</g>
</svg>
